<svg width="32" height="32" viewBox="0 0 32 32" fill="none" xmlns="http://www.w3.org/2000/svg">
<circle cx="16" cy="16" r="15" fill="white"/>
<path d="M8.41 22V11.902H4.45V9.652H15.088V11.902H11.11V22H8.41ZM16.8993 22V9.652H23.6673C24.5793 9.652 25.3353 9.814 25.9353 10.138C26.5473 10.462 27.0033 10.918 27.3033 11.506C27.6033 12.082 27.7533 12.748 27.7533 13.504C27.7533 14.308 27.5733 15.022 27.2133 15.646C26.8533 16.258 26.3313 16.726 25.6473 17.05L28.1673 22H25.1973L23.0193 17.5H19.5813V22H16.8993ZM19.5813 15.376H23.3073C23.8473 15.376 24.2673 15.214 24.5673 14.89C24.8673 14.554 25.0173 14.104 25.0173 13.54C25.0173 13.18 24.9513 12.874 24.8193 12.622C24.6873 12.358 24.4953 12.16 24.2433 12.028C23.9913 11.896 23.6793 11.83 23.3073 11.83H19.5813V15.376Z" fill="black"/>
</svg>
