<svg width="32" height="32" viewBox="0 0 32 32" fill="none" xmlns="http://www.w3.org/2000/svg">
<circle cx="16" cy="16" r="15" fill="white"/>
<path d="M15.58 14.4L13.3 14.6L12.9 12.28H10.84V20.72H12.96V23H6.16V20.72H8.16V12.28H6.1L5.7 14.6L3.42 14.4L3.82 10H15.18L15.58 14.4ZM28.5473 23H25.2273L22.6473 18.04H20.8873V20.72H22.2873V23H16.8073V20.72H18.2073V12.28H16.8073V10H22.6873C24.3007 10 25.5407 10.3333 26.4073 11C27.274 11.6533 27.7073 12.6333 27.7073 13.94C27.7073 14.82 27.4807 15.56 27.0273 16.16C26.574 16.7467 25.974 17.1867 25.2273 17.48L26.9873 20.72H28.5473V23ZM24.8273 14C24.8273 13.3467 24.634 12.9 24.2473 12.66C23.8607 12.4067 23.1807 12.28 22.2073 12.28H20.8873V15.92H22.1673C23.194 15.92 23.894 15.7533 24.2673 15.42C24.6407 15.0867 24.8273 14.6133 24.8273 14Z" fill="black"/>
</svg>
